<mxfile host="app.diagrams.net" modified="2023-11-01T02:30:51.023Z" agent="Mozilla/5.0 (Windows NT 10.0; Win64; x64) AppleWebKit/537.36 (KHTML, like Gecko) Chrome/93.0.4577.63 Safari/537.36 Edg/93.0.961.47" etag="6l7e6WaOriXDNF8D0yAE" version="22.0.8" type="github">
  <diagram name="第 1 页" id="bxewLr1ukeph8XzEij-5">
    <mxGraphModel dx="921" dy="443" grid="1" gridSize="10" guides="1" tooltips="1" connect="1" arrows="1" fold="1" page="1" pageScale="1" pageWidth="827" pageHeight="1169" math="0" shadow="0">
      <root>
        <mxCell id="0" />
        <mxCell id="1" parent="0" />
        <mxCell id="4EgMG-mmO183kIPFzI5s-9" style="edgeStyle=orthogonalEdgeStyle;rounded=0;orthogonalLoop=1;jettySize=auto;html=1;" edge="1" parent="1" source="4EgMG-mmO183kIPFzI5s-1" target="4EgMG-mmO183kIPFzI5s-2">
          <mxGeometry relative="1" as="geometry" />
        </mxCell>
        <mxCell id="4EgMG-mmO183kIPFzI5s-1" value="开始" style="rounded=1;whiteSpace=wrap;html=1;" vertex="1" parent="1">
          <mxGeometry x="40" y="150" width="120" height="60" as="geometry" />
        </mxCell>
        <mxCell id="4EgMG-mmO183kIPFzI5s-10" style="edgeStyle=orthogonalEdgeStyle;rounded=0;orthogonalLoop=1;jettySize=auto;html=1;entryX=0;entryY=0.5;entryDx=0;entryDy=0;" edge="1" parent="1" source="4EgMG-mmO183kIPFzI5s-2" target="4EgMG-mmO183kIPFzI5s-3">
          <mxGeometry relative="1" as="geometry" />
        </mxCell>
        <mxCell id="4EgMG-mmO183kIPFzI5s-2" value="遍历约束对象容器" style="rounded=0;whiteSpace=wrap;html=1;" vertex="1" parent="1">
          <mxGeometry x="200" y="150" width="120" height="60" as="geometry" />
        </mxCell>
        <mxCell id="4EgMG-mmO183kIPFzI5s-11" style="edgeStyle=orthogonalEdgeStyle;rounded=0;orthogonalLoop=1;jettySize=auto;html=1;entryX=0;entryY=0.5;entryDx=0;entryDy=0;" edge="1" parent="1" source="4EgMG-mmO183kIPFzI5s-3" target="4EgMG-mmO183kIPFzI5s-4">
          <mxGeometry relative="1" as="geometry" />
        </mxCell>
        <mxCell id="4EgMG-mmO183kIPFzI5s-3" value="分析几何约束信息" style="rounded=0;whiteSpace=wrap;html=1;" vertex="1" parent="1">
          <mxGeometry x="360" y="150" width="120" height="60" as="geometry" />
        </mxCell>
        <mxCell id="4EgMG-mmO183kIPFzI5s-12" style="edgeStyle=orthogonalEdgeStyle;rounded=0;orthogonalLoop=1;jettySize=auto;html=1;exitX=0.5;exitY=1;exitDx=0;exitDy=0;entryX=0.5;entryY=0;entryDx=0;entryDy=0;" edge="1" parent="1" source="4EgMG-mmO183kIPFzI5s-4" target="4EgMG-mmO183kIPFzI5s-5">
          <mxGeometry relative="1" as="geometry" />
        </mxCell>
        <mxCell id="4EgMG-mmO183kIPFzI5s-4" value="求解器内部创建真正的约束对象" style="rounded=0;whiteSpace=wrap;html=1;" vertex="1" parent="1">
          <mxGeometry x="520" y="150" width="120" height="60" as="geometry" />
        </mxCell>
        <mxCell id="4EgMG-mmO183kIPFzI5s-13" style="edgeStyle=orthogonalEdgeStyle;rounded=0;orthogonalLoop=1;jettySize=auto;html=1;entryX=1;entryY=0.5;entryDx=0;entryDy=0;" edge="1" parent="1" source="4EgMG-mmO183kIPFzI5s-5" target="4EgMG-mmO183kIPFzI5s-6">
          <mxGeometry relative="1" as="geometry" />
        </mxCell>
        <mxCell id="4EgMG-mmO183kIPFzI5s-5" value="约束求解" style="rounded=0;whiteSpace=wrap;html=1;" vertex="1" parent="1">
          <mxGeometry x="520" y="240" width="120" height="60" as="geometry" />
        </mxCell>
        <mxCell id="4EgMG-mmO183kIPFzI5s-14" style="edgeStyle=orthogonalEdgeStyle;rounded=0;orthogonalLoop=1;jettySize=auto;html=1;entryX=1;entryY=0.5;entryDx=0;entryDy=0;" edge="1" parent="1" source="4EgMG-mmO183kIPFzI5s-6" target="4EgMG-mmO183kIPFzI5s-7">
          <mxGeometry relative="1" as="geometry" />
        </mxCell>
        <mxCell id="4EgMG-mmO183kIPFzI5s-15" style="edgeStyle=orthogonalEdgeStyle;rounded=0;orthogonalLoop=1;jettySize=auto;html=1;exitX=0.5;exitY=1;exitDx=0;exitDy=0;entryX=0.5;entryY=0;entryDx=0;entryDy=0;" edge="1" parent="1" source="4EgMG-mmO183kIPFzI5s-6" target="4EgMG-mmO183kIPFzI5s-8">
          <mxGeometry relative="1" as="geometry" />
        </mxCell>
        <mxCell id="4EgMG-mmO183kIPFzI5s-6" value="求解成功" style="rhombus;whiteSpace=wrap;html=1;" vertex="1" parent="1">
          <mxGeometry x="380" y="230" width="80" height="80" as="geometry" />
        </mxCell>
        <mxCell id="4EgMG-mmO183kIPFzI5s-18" style="edgeStyle=orthogonalEdgeStyle;rounded=0;orthogonalLoop=1;jettySize=auto;html=1;" edge="1" parent="1" source="4EgMG-mmO183kIPFzI5s-7" target="4EgMG-mmO183kIPFzI5s-17">
          <mxGeometry relative="1" as="geometry" />
        </mxCell>
        <mxCell id="4EgMG-mmO183kIPFzI5s-7" value="更新草图数据和形状" style="rounded=0;whiteSpace=wrap;html=1;" vertex="1" parent="1">
          <mxGeometry x="200" y="240" width="120" height="60" as="geometry" />
        </mxCell>
        <mxCell id="4EgMG-mmO183kIPFzI5s-16" style="edgeStyle=orthogonalEdgeStyle;rounded=0;orthogonalLoop=1;jettySize=auto;html=1;entryX=1;entryY=0.5;entryDx=0;entryDy=0;" edge="1" parent="1" source="4EgMG-mmO183kIPFzI5s-8" target="4EgMG-mmO183kIPFzI5s-17">
          <mxGeometry relative="1" as="geometry">
            <mxPoint x="70" y="370" as="targetPoint" />
            <Array as="points">
              <mxPoint x="180" y="370" />
              <mxPoint x="180" y="270" />
            </Array>
          </mxGeometry>
        </mxCell>
        <mxCell id="4EgMG-mmO183kIPFzI5s-8" value="输出求解失败原因并将冗余或冲突约束高亮" style="rounded=0;whiteSpace=wrap;html=1;" vertex="1" parent="1">
          <mxGeometry x="360" y="340" width="120" height="60" as="geometry" />
        </mxCell>
        <mxCell id="4EgMG-mmO183kIPFzI5s-17" value="结束" style="rounded=1;whiteSpace=wrap;html=1;" vertex="1" parent="1">
          <mxGeometry x="40" y="240" width="120" height="60" as="geometry" />
        </mxCell>
      </root>
    </mxGraphModel>
  </diagram>
</mxfile>
